<?xml version="1.0" standalone="no"?>
<!DOCTYPE svg PUBLIC "-//W3C//DTD SVG 20010904//EN"
 "http://www.w3.org/TR/2001/REC-SVG-20010904/DTD/svg10.dtd">
<svg version="1.0" xmlns="http://www.w3.org/2000/svg"
 width="1184.000000pt" height="1184.000000pt" viewBox="0 0 1184.000000 1184.000000"
 preserveAspectRatio="xMidYMid meet">
<metadata>
Created by potrace 1.11, written by Peter Selinger 2001-2013
</metadata>
<g transform="translate(0.000000,1184.000000) scale(0.100000,-0.100000)"
fill="#000000" stroke="none">
<path d="M1778 8916 c-1 -2 -32 -7 -68 -10 -100 -10 -154 -18 -163 -23 -4 -2
-25 -6 -47 -8 -22 -2 -66 -11 -97 -20 -71 -19 -88 -24 -110 -29 -51 -12 -236
-83 -292 -113 -35 -18 -70 -33 -77 -33 -8 0 -14 -4 -14 -9 0 -5 -9 -12 -19
-16 -18 -6 -98 -57 -181 -115 -46 -33 -111 -91 -183 -164 -254 -257 -404 -622
-407 -991 -1 -127 12 -263 32 -340 6 -22 12 -52 15 -66 2 -15 13 -51 24 -80
11 -30 21 -58 22 -63 1 -5 18 -44 39 -86 109 -230 289 -432 543 -610 39 -27
75 -54 82 -60 7 -5 15 -10 18 -10 3 0 53 -27 110 -61 132 -77 355 -179 563
-257 255 -97 522 -217 538 -243 3 -5 10 -7 15 -4 5 4 9 1 9 -4 0 -6 7 -11 15
-11 8 0 15 -4 15 -10 0 -5 5 -10 11 -10 26 0 188 -121 269 -200 96 -94 142
-156 184 -245 16 -33 32 -68 37 -77 18 -36 50 -182 55 -251 14 -185 -2 -316
-56 -462 -116 -316 -410 -535 -820 -610 -79 -14 -154 -19 -320 -19 -198 0
-289 7 -410 30 -14 3 -34 6 -45 8 -122 21 -207 43 -355 93 -74 25 -151 52
-170 60 -63 28 -285 136 -290 142 -8 10 -49 31 -59 31 -5 0 -12 -15 -16 -32
-9 -37 -12 -47 -15 -50 -1 -2 -3 -10 -5 -18 -1 -8 -19 -69 -40 -135 -20 -66
-38 -124 -39 -130 -15 -55 -20 -71 -25 -80 -3 -5 -7 -18 -8 -29 -2 -10 -12
-45 -23 -78 -23 -70 -24 -69 65 -110 28 -13 51 -26 53 -30 2 -5 12 -8 23 -8
10 0 19 -4 19 -10 0 -5 7 -10 15 -10 9 0 32 -8 53 -19 140 -70 484 -173 687
-205 17 -3 44 -7 60 -10 33 -5 93 -12 200 -22 184 -17 557 -6 725 22 19 3 46
7 60 9 75 11 100 16 124 25 14 5 26 8 26 5 0 -2 15 1 33 6 17 6 41 12 52 14
11 3 61 18 110 35 50 17 95 32 100 34 62 18 258 117 343 172 291 190 496 440
609 744 34 89 70 221 78 280 3 19 8 50 11 68 19 121 19 349 0 487 -5 29 -30
159 -40 200 -27 115 -142 356 -211 444 -147 186 -257 287 -452 418 -49 32 -90
60 -93 63 -3 3 -16 11 -30 18 -68 35 -129 69 -143 81 -9 7 -22 14 -29 15 -7 2
-71 31 -141 64 -70 34 -139 65 -152 68 -14 3 -28 10 -31 15 -3 5 -14 9 -25 9
-10 0 -19 5 -19 10 0 6 -3 9 -7 8 -10 -3 -43 9 -208 77 -144 59 -154 64 -290
131 -173 84 -215 108 -315 178 -152 106 -282 252 -334 376 -10 25 -25 59 -32
76 -8 17 -16 49 -20 70 -3 22 -8 53 -12 69 -3 17 -6 86 -6 155 -1 110 8 177
31 240 4 8 7 21 9 28 1 7 16 43 34 80 96 205 285 363 535 448 44 14 89 28 100
29 11 2 45 8 75 14 117 24 384 33 505 17 28 -4 73 -9 100 -12 116 -13 372 -73
440 -103 11 -5 36 -14 55 -21 53 -18 66 -24 180 -78 58 -27 106 -48 108 -47 2
2 5 9 6 17 2 7 5 20 8 28 3 8 16 44 28 80 12 36 24 72 27 80 3 8 7 20 9 25 1
6 19 57 39 115 20 58 38 112 40 120 1 8 12 42 24 75 12 32 21 61 21 62 0 2
-35 19 -77 38 -43 19 -91 42 -106 50 -16 8 -33 15 -39 15 -5 0 -24 6 -41 14
-78 35 -322 104 -427 120 -19 3 -46 8 -60 11 -28 6 -89 15 -145 22 -44 6 -571
13 -577 9z"/>
<path d="M7035 8882 c-2 -2 -31 -5 -65 -7 -33 -2 -89 -7 -123 -11 -34 -3 -73
-8 -87 -9 -75 -8 -134 -16 -139 -19 -6 -4 -34 -9 -116 -21 -22 -3 -53 -10 -70
-15 -16 -5 -42 -11 -56 -14 -61 -10 -232 -61 -349 -103 -141 -51 -155 -56
-297 -124 -57 -27 -107 -49 -113 -49 -5 0 -10 -3 -10 -7 0 -5 -26 -21 -58 -38
-31 -16 -61 -33 -67 -38 -5 -4 -39 -26 -75 -49 -289 -184 -550 -443 -764 -756
-31 -45 -56 -84 -56 -87 0 -2 -19 -36 -43 -77 -51 -86 -123 -235 -162 -333
-15 -38 -31 -79 -36 -90 -9 -21 -40 -113 -44 -130 -1 -5 -4 -17 -7 -25 -12
-32 -48 -167 -53 -199 -3 -19 -8 -37 -10 -40 -6 -10 -47 -243 -51 -291 -2 -25
-6 -63 -9 -85 -25 -190 -20 -650 9 -805 2 -14 7 -47 10 -75 7 -55 13 -97 22
-135 3 -13 7 -38 9 -56 4 -24 59 -242 79 -309 1 -5 8 -28 14 -50 36 -127 198
-489 253 -566 10 -15 19 -29 19 -32 0 -10 83 -132 92 -135 4 -2 8 -8 8 -14 0
-5 21 -35 46 -66 25 -31 60 -75 77 -97 104 -129 332 -328 517 -450 100 -66
390 -221 390 -209 0 4 6 2 13 -3 12 -10 228 -93 250 -97 7 -1 18 -5 25 -9 6
-5 12 -6 12 -3 0 3 19 -1 41 -10 23 -8 51 -16 63 -19 12 -2 30 -6 41 -9 132
-33 342 -70 460 -81 17 -2 66 -7 110 -11 44 -5 204 -8 355 -8 240 0 344 4 490
20 19 2 60 6 90 9 90 9 203 25 275 39 11 2 40 7 65 11 25 4 54 9 65 11 11 2
34 7 50 10 17 2 48 10 70 16 22 5 49 11 60 13 11 1 27 5 35 9 14 5 38 10 105
23 17 3 38 9 48 14 9 5 17 7 17 3 0 -3 7 -1 15 6 8 7 15 10 15 7 0 -6 132 34
285 85 l100 33 0 1378 c0 1031 -3 1380 -12 1385 -8 5 -1790 8 -1871 3 -10 -1
-12 -64 -10 -298 l3 -298 570 -1 c314 -1 576 -2 583 -3 10 -1 12 -176 10 -857
l-3 -856 -50 -18 c-157 -55 -260 -82 -409 -105 -21 -4 -48 -9 -60 -11 -109
-24 -664 -23 -806 0 -26 5 -87 13 -154 22 -22 3 -43 7 -47 9 -4 3 -24 7 -45
11 -20 3 -48 10 -61 15 -13 5 -23 7 -23 4 0 -2 -25 5 -55 15 -30 10 -55 16
-55 13 0 -3 -6 -1 -12 4 -7 5 -33 15 -58 23 -25 7 -49 17 -54 22 -6 4 -16 8
-24 8 -44 0 -451 227 -482 269 -3 3 -25 22 -50 41 -51 40 -198 185 -250 248
-19 24 -40 48 -46 55 -5 7 -43 61 -82 122 -77 116 -162 282 -207 405 -15 41
-31 84 -36 95 -8 21 -17 50 -24 82 -2 10 -12 45 -21 78 -9 33 -18 68 -20 78
-2 10 -5 26 -8 35 -3 9 -8 37 -11 62 -4 24 -8 47 -10 50 -5 8 -16 97 -32 250
-12 123 -7 625 7 625 1 0 3 20 5 45 5 63 12 116 19 137 2 10 7 34 10 53 3 19
8 46 12 60 3 14 9 41 14 60 5 19 10 44 13 55 24 98 139 402 157 415 4 3 11 16
15 30 12 38 125 218 195 311 72 95 288 314 320 324 11 3 20 10 20 15 0 5 15
18 33 29 18 11 44 29 56 41 13 11 28 20 32 20 4 0 14 6 21 13 33 32 244 142
358 186 25 10 54 21 65 26 11 4 26 9 33 11 8 1 21 6 30 10 20 9 15 7 72 23 25
7 46 13 47 12 2 0 21 6 43 14 22 8 43 14 45 14 3 0 29 5 58 10 75 16 96 20
142 26 22 4 54 8 71 11 103 16 302 26 479 26 83 0 152 -1 155 -2 3 -1 33 -3
67 -5 34 -2 83 -6 108 -9 25 -3 66 -9 93 -12 77 -10 217 -37 287 -56 39 -10
52 -13 97 -23 38 -8 316 -105 345 -120 15 -8 33 -15 39 -15 6 0 19 28 29 63
10 34 17 62 16 62 -2 0 3 14 9 30 17 42 121 394 127 428 4 22 2 27 -15 27 -12
0 -23 4 -26 9 -3 5 -17 12 -30 15 -14 3 -38 11 -53 18 -15 6 -35 12 -43 14 -8
2 -23 7 -35 13 -25 13 -342 102 -375 106 -16 2 -66 11 -110 20 -47 10 -88 17
-260 40 -25 3 -76 8 -115 11 -78 6 -595 11 -600 6z"/>
<path d="M10860 4732 c-94 -12 -315 -91 -340 -121 -3 -4 -25 -19 -49 -35 -52
-34 -160 -141 -200 -200 -132 -193 -176 -398 -147 -689 14 -137 97 -359 161
-433 6 -7 32 -38 60 -70 97 -116 277 -224 412 -249 16 -3 39 -8 53 -11 14 -4
79 -8 145 -10 349 -10 636 155 782 451 24 47 60 141 68 175 1 3 5 23 10 45 4
22 10 49 13 60 11 48 9 304 -3 370 -34 175 -103 330 -194 434 -12 13 -21 29
-21 34 0 6 -3 7 -6 4 -4 -3 -15 4 -25 17 -10 12 -42 41 -71 63 -55 42 -188
117 -188 107 0 -4 -6 -2 -12 4 -12 9 -71 28 -123 38 -11 2 -33 7 -50 10 -34 7
-237 12 -275 6z"/>
</g>
</svg>
