<svg id="Layer_1" data-name="Layer 1" xmlns="http://www.w3.org/2000/svg" viewBox="0 0 464.043 57.4058">
  <defs>
    <style>
      .cls-1 {
        fill: #fff;
      }

      .cls-2 {
        fill: #f28f78;
      }
    </style>
  </defs>
  <title>logo</title>
  <g>
    <path class="cls-1" d="M77.8389,245.9482H82.17v16.2881c-4.0264,3.6-9.7607,5.43-15.6782,5.43-12.9942,0-22.5108-9.2119-22.5108-21.7178s9.5166-21.7177,22.5718-21.7177c6.4663,0,12.0786,2.0742,15.8609,6.1616l-2.8062,2.8672a17.414,17.414,0,0,0-12.8721-5.0025c-10.5537,0-18.3012,7.5035-18.3012,17.6914,0,10.127,7.7475,17.6914,18.2407,17.6914a18.4873,18.4873,0,0,0,11.1636-3.2944Z" transform="translate(-43.9814 -222.0342)"/>
    <path class="cls-1" d="M118.22,247.4121V267.3h-4.1484v-5.0024c-1.9522,3.2944-5.7344,5.3076-11.0415,5.3076-7.26,0-11.7129-3.7822-11.7129-9.334,0-4.9414,3.1719-9.0894,12.3838-9.0894h10.1875V247.23c0-5.4907-3.1109-8.48-9.0894-8.48a16.3478,16.3478,0,0,0-10.6758,3.7822l-1.9521-3.2329a20.3733,20.3733,0,0,1,13.0547-4.3315C113.5229,234.9673,118.22,239.1157,118.22,247.4121Zm-4.3315,10.249v-5.2465H103.8232c-6.2226,0-8.2358,2.44-8.2358,5.7343,0,3.7217,2.9893,6.04,8.1138,6.04C108.5815,264.1885,112.1807,261.8706,113.8887,257.6611Z" transform="translate(-43.9814 -222.0342)"/>
    <path class="cls-1" d="M159.5176,248.6934V267.3H155.186V249.1206c0-6.7715-3.5381-10.249-9.6386-10.249-6.8936,0-11.2251,4.27-11.2251,11.5908V267.3h-4.3311V235.2114H134.14v5.9175c2.3179-3.9043,6.6495-6.1616,12.2007-6.1616C154.1489,234.9673,159.5176,239.4814,159.5176,248.6934Z" transform="translate(-43.9814 -222.0342)"/>
    <path class="cls-1" d="M201.1187,235.2114v28.1841c0,11.042-5.4292,16.0444-16.044,16.0444-5.8564,0-11.5908-1.77-14.9463-4.9414l2.1963-3.2944a19.0994,19.0994,0,0,0,12.6279,4.3926c8.1138,0,11.835-3.7217,11.835-11.6524v-4.0869c-2.6841,4.0869-7.26,6.2222-12.5059,6.2222-9.1508,0-16.1054-6.4053-16.1054-15.6172s6.9546-15.4951,16.1054-15.4951c5.3682,0,10.0044,2.1963,12.689,6.4057v-6.1616Zm-4.209,15.251c0-6.9546-5.1245-11.7129-12.2012-11.7129s-12.14,4.7583-12.14,11.7129,5.063,11.7739,12.14,11.7739S196.91,257.417,196.91,250.4624Z" transform="translate(-43.9814 -222.0342)"/>
    <path class="cls-1" d="M237.4736,247.4121V267.3h-4.1484v-5.0024c-1.9522,3.2944-5.7344,5.3076-11.0415,5.3076-7.26,0-11.7129-3.7822-11.7129-9.334,0-4.9414,3.1719-9.0894,12.3838-9.0894h10.1875V247.23c0-5.4907-3.1109-8.48-9.0894-8.48a16.3473,16.3473,0,0,0-10.6757,3.7822l-1.9522-3.2329a20.3743,20.3743,0,0,1,13.0547-4.3315C232.7764,234.9673,237.4736,239.1157,237.4736,247.4121Zm-4.3315,10.249v-5.2465H223.0767c-6.2227,0-8.2359,2.44-8.2359,5.7343,0,3.7217,2.9893,6.04,8.1138,6.04C227.835,264.1885,231.4341,261.8706,233.1421,257.6611Z" transform="translate(-43.9814 -222.0342)"/>
    <path class="cls-1" d="M281.76,251.2554c0,9.7607-6.8331,16.35-15.9834,16.35a14.0156,14.0156,0,0,1-12.2012-6.3447v17.8745h-4.3311V235.2114h4.1485v6.3443a13.9765,13.9765,0,0,1,12.3838-6.5884C274.9272,234.9673,281.76,241.5557,281.76,251.2554Zm-4.3321,0c0-7.4424-5.1845-12.5059-11.9565-12.5059-6.8325,0-11.9571,5.0635-11.9571,12.5059,0,7.5039,5.1246,12.5063,11.9571,12.5063C272.2437,263.7617,277.4282,258.7593,277.4282,251.2554Z" transform="translate(-43.9814 -222.0342)"/>
    <path class="cls-1" d="M319.5186,235.2114V267.3H315.37v-5.8564c-2.2578,3.9043-6.4053,6.1616-11.53,6.1616-8.1743,0-13.5424-4.5757-13.5424-13.7871V235.2114h4.331v18.1792c0,6.8325,3.5391,10.31,9.6382,10.31,6.7109,0,10.92-4.3316,10.92-11.6519V235.2114Z" transform="translate(-43.9814 -222.0342)"/>
    <path class="cls-1" d="M347.8213,234.9673v4.2095c-.3662,0-.7324-.0611-1.0371-.0611-6.711,0-10.7979,4.27-10.7979,11.835V267.3h-4.332V235.2114h4.1484v6.2832C337.8164,237.2246,341.9033,234.9673,347.8213,234.9673Z" transform="translate(-43.9814 -222.0342)"/>
    <path class="cls-1" d="M404.125,235.2114,391.9854,267.3h-4.087l-10.1269-26.293L367.6445,267.3h-4.0869l-12.0791-32.0884h4.1485l10.0654,27.2691,10.31-27.2691h3.7216l10.2491,27.2691L400.16,235.2114Z" transform="translate(-43.9814 -222.0342)"/>
    <path class="cls-1" d="M433.8926,247.4121V267.3h-4.1485v-5.0024c-1.9521,3.2944-5.7343,5.3076-11.042,5.3076-7.26,0-11.7128-3.7822-11.7128-9.334,0-4.9414,3.1718-9.0894,12.3837-9.0894h10.1875V247.23c0-5.4907-3.1113-8.48-9.09-8.48a16.3478,16.3478,0,0,0-10.6758,3.7822l-1.9521-3.2329a20.3771,20.3771,0,0,1,13.0556-4.3315C429.1943,234.9673,433.8926,239.1157,433.8926,247.4121Zm-4.3321,10.249v-5.2465H419.4951c-6.2226,0-8.2353,2.44-8.2353,5.7343,0,3.7217,2.9892,6.04,8.1132,6.04C424.2529,264.1885,427.8525,261.8706,429.5605,257.6611Z" transform="translate(-43.9814 -222.0342)"/>
    <path class="cls-1" d="M445.6631,222.0342h4.332V267.3h-4.332Z" transform="translate(-43.9814 -222.0342)"/>
    <path class="cls-1" d="M486.291,247.4121V267.3h-4.1474v-5.0024c-1.9522,3.2944-5.7344,5.3076-11.042,5.3076-7.26,0-11.7129-3.7822-11.7129-9.334,0-4.9414,3.1718-9.0894,12.3838-9.0894H481.96V247.23c0-5.4907-3.1114-8.48-9.09-8.48a16.3518,16.3518,0,0,0-10.6758,3.7822l-1.9521-3.2329a20.3772,20.3772,0,0,1,13.0557-4.3315C481.5938,234.9673,486.291,239.1157,486.291,247.4121Zm-4.331,10.249v-5.2465H471.8945c-6.2226,0-8.2353,2.44-8.2353,5.7343,0,3.7217,2.9892,6.04,8.1133,6.04C476.6523,264.1885,480.252,261.8706,481.96,257.6611Z" transform="translate(-43.9814 -222.0342)"/>
    <path class="cls-2" d="M497.3242,262.2993a5.2932,5.2932,0,0,1,5.3-5.4,5.3769,5.3769,0,0,1,5.4,5.4,5.4636,5.4636,0,0,1-5.4,5.5A5.38,5.38,0,0,1,497.3242,262.2993Z" transform="translate(-43.9814 -222.0342)"/>
  </g>
</svg>
